<?xml version="1.0" standalone="no"?>
<!DOCTYPE svg PUBLIC "-//W3C//DTD SVG 20010904//EN"
 "http://www.w3.org/TR/2001/REC-SVG-20010904/DTD/svg10.dtd">
<svg version="1.0" xmlns="http://www.w3.org/2000/svg"
 width="6000.000000pt" height="6000.000000pt" viewBox="0 0 6000.000000 6000.000000"
 preserveAspectRatio="xMidYMid meet">

<g transform="translate(0.000000,6000.000000) scale(0.100000,-0.100000)"
fill="#000000" stroke="none">
<path d="M43287 50603 c-16 -73 -187 -237 -462 -443 -138 -104 -454 -320 -519
-357 -13 -7 -12 -16 5 -78 52 -188 48 -462 -10 -660 -56 -189 -55 -187 -247
-455 -164 -230 -691 -931 -1095 -1460 -306 -399 -523 -682 -637 -830 -75 -96
-212 -274 -306 -395 -93 -121 -189 -245 -213 -275 -24 -30 -113 -145 -199
-255 -308 -396 -407 -517 -438 -536 -79 -48 -278 -95 -598 -141 l-88 -12 0
-62 0 -61 58 -38 c256 -169 826 -792 1097 -1200 70 -105 196 -237 241 -252 31
-11 31 -11 93 77 223 317 658 563 1266 719 441 114 1073 191 1558 191 l139 0
-7 -1042 c-3 -574 -10 -1093 -16 -1155 -19 -229 -97 -392 -268 -563 -73 -73
-113 -104 -224 -175 -13 -8 12 -55 163 -295 99 -157 181 -289 183 -295 3 -5
49 34 103 87 508 497 1075 819 1501 854 l85 7 -6 31 c-4 17 -13 81 -22 141 -8
61 -20 140 -27 178 l-12 67 -62 38 c-34 20 -107 73 -163 117 l-100 79 0 958 0
958 69 0 c324 0 659 -100 929 -277 169 -111 388 -354 475 -529 l26 -51 148
-23 c81 -12 176 -28 211 -35 58 -12 81 -7 68 14 -10 16 13 155 39 236 102 316
442 797 893 1265 67 69 117 126 113 128 -4 1 -122 79 -261 173 -140 94 -258
172 -262 175 -4 3 -15 -10 -24 -28 -52 -100 -230 -237 -460 -354 l-145 -74
-910 0 -910 0 3 2138 4 2137 26 185 c38 258 91 511 153 725 5 17 -2 25 -40 43
-164 79 -584 402 -835 641 -41 39 -76 71 -76 71 -1 0 -4 -12 -7 -27z m213
-2273 c0 -11 -81 -30 -126 -30 -59 0 -26 23 38 26 29 2 54 7 56 13 4 11 32 3
32 -9z m-27 -80 c9 0 17 -4 17 -9 0 -12 -113 -31 -124 -21 -12 12 45 41 69 35
11 -3 28 -5 38 -5z m-563 -1780 l0 -1760 -1381 0 -1381 0 19 24 c20 27 314
403 540 691 82 105 216 276 298 380 82 105 214 273 294 375 80 102 240 307
356 455 116 149 278 356 360 460 82 105 244 312 360 460 468 599 528 675 531
675 2 0 4 -792 4 -1760z m558 1694 c37 -10 25 -21 -34 -29 -65 -8 -77 -2 -37
19 32 17 39 18 71 10z m36 -104 c9 -9 -91 -29 -111 -22 -17 5 -6 21 21 32 22
9 75 3 90 -10z m20 -100 c7 -7 2 -10 -14 -11 -14 0 -49 -3 -78 -5 -60 -5 -63
8 -9 31 31 13 80 6 101 -15z m-18 -80 c32 -13 28 -19 -20 -30 -23 -5 -36 -4
-36 2 0 6 -12 8 -30 4 -35 -6 -32 10 4 24 29 12 50 12 82 0z m42 -95 c8 -8 0
-12 -40 -18 -34 -5 -38 -3 -38 15 0 18 4 20 36 15 20 -3 39 -9 42 -12z m-108
-13 c0 -15 -11 -21 -27 -15 -12 5 -12 7 -1 14 17 11 28 11 28 1z m50 -64 c0
-17 -18 -44 -24 -37 -8 7 5 49 15 49 5 0 9 -6 9 -12z m55 -11 c17 -13 15 -14
-15 -21 -38 -7 -43 -5 -34 18 7 20 24 21 49 3z m-102 -12 c-3 -9 -8 -14 -10
-11 -3 3 -2 9 2 15 9 16 15 13 8 -4z m-33 -5 c0 -5 -5 -10 -11 -10 -5 0 -7 5
-4 10 3 6 8 10 11 10 2 0 4 -4 4 -10z m140 -70 c8 -5 12 -11 10 -14 -12 -11
-56 -15 -70 -6 -30 20 28 40 60 20z m-84 -25 c21 -16 12 -18 -36 -9 -22 5 -28
9 -18 15 19 12 32 11 54 -6z m88 -75 c14 -14 -65 -30 -104 -21 l-35 7 30 16
c30 17 91 15 109 -2z m9 -90 c14 -13 -12 -22 -81 -28 -48 -4 -63 -2 -58 7 20
32 112 46 139 21z m18 -97 c6 -6 -10 -14 -44 -23 -43 -10 -59 -10 -77 0 l-22
12 26 18 c21 13 37 15 67 10 22 -4 45 -12 50 -17z m6 -97 c10 -9 2 -14 -50
-28 -39 -10 -50 -10 -56 1 -5 7 -11 12 -15 12 -25 -4 -27 2 -6 15 24 14 113
15 127 0z m-12 -90 l40 -13 -30 -8 c-16 -4 -35 -11 -41 -16 -11 -9 -47 -5 -85
9 -20 8 -20 9 12 25 40 19 51 20 104 3z m20 -100 l30 -12 -49 -13 c-46 -11
-144 -6 -131 8 11 11 69 29 95 30 14 0 38 -6 55 -13z m-7 -91 c32 -9 27 -18
-18 -33 -28 -9 -46 -9 -60 -2 -10 5 -25 7 -33 4 -8 -3 -18 -1 -22 5 -3 6 -5
11 -3 11 2 0 21 7 43 15 22 8 47 12 55 10 8 -2 25 -6 38 -10z m32 -99 l35 -13
-55 -12 c-36 -8 -70 -9 -100 -3 l-45 9 35 16 c42 19 83 20 130 3z m-45 -86
l20 -9 -20 -2 c-43 -4 -75 -5 -75 -2 0 4 42 22 50 22 3 0 14 -4 25 -9z m128
-146 c38 -7 52 -24 18 -24 -17 0 -20 -9 -23 -82 -2 -46 1 -132 6 -193 5 -60
10 -491 10 -956 l1 -846 275 -11 c151 -6 316 -11 366 -11 l91 0 -4 -26 c-6
-29 -11 -30 -39 -11 -28 20 -65 22 -94 7 -17 -10 -25 -11 -28 -2 -9 27 -19 7
-20 -41 -4 -119 -5 -123 -31 -120 -30 5 -525 29 -529 27 -1 -2 -7 -83 -12
-181 -14 -273 -47 -734 -70 -974 -37 -399 -41 -435 -61 -600 -91 -766 -101
-811 -193 -907 -29 -29 -58 -53 -65 -53 -21 0 -7 78 26 144 23 48 30 55 50 50
16 -5 23 -2 23 9 0 8 3 24 7 34 4 12 0 10 -14 -7 -12 -14 -25 -22 -29 -17 -4
4 0 74 9 155 105 898 172 1650 193 2172 3 91 8 168 11 173 2 4 -4 7 -15 7 -18
0 -20 -12 -26 -192 -4 -106 -11 -245 -16 -308 -5 -63 -14 -196 -20 -295 -10
-169 -58 -720 -81 -934 -33 -307 -92 -747 -101 -756 -7 -7 -8 -1 -4 20 3 17
15 111 26 210 12 99 32 275 46 390 24 207 39 366 68 720 27 332 38 488 54 818
l17 327 -495 1 c-355 1 -485 4 -460 11 36 11 1330 4 1558 -8 99 -6 112 -4 112
10 0 11 -9 16 -27 16 -16 0 -120 5 -233 10 -496 24 -1863 7 -2360 -30 -593
-43 -1245 -105 -1633 -154 -111 -15 -207 -25 -279 -30 -31 -2 -38 1 -38 15 0
10 -5 21 -11 25 -8 5 -10 -1 -5 -19 5 -23 1 -28 -48 -55 -55 -30 -146 -50
-146 -32 0 16 72 91 110 115 71 44 171 65 535 110 116 14 262 32 325 40 349
44 1188 111 1680 135 330 16 1133 33 1282 27 l136 -6 7 137 c15 268 -6 1507
-29 1714 -4 34 -2 36 28 43 17 3 55 6 84 7 28 1 52 5 52 10 0 4 -5 8 -11 8 -5
0 -3 10 5 22 21 30 20 68 -4 98 -25 32 -25 40 -1 40 11 0 23 5 26 10 4 7 -21
9 -72 6 -51 -3 -68 -2 -48 3 38 11 90 12 138 5z m-213 -29 c-35 -20 -62 -19
-36 0 11 8 29 15 40 15 19 -1 19 -2 -4 -15z m28 -33 c-13 -16 -25 -24 -27 -19
-2 6 6 19 19 29 32 26 35 22 8 -10z m127 -12 c16 -18 16 -20 2 -20 -19 0 -23
-15 -7 -25 6 -3 10 -12 9 -18 0 -9 -2 -9 -6 1 -2 6 -12 12 -20 12 -12 0 -14 7
-8 28 5 22 4 25 -6 15 -20 -20 -31 -15 -19 7 6 11 17 20 24 20 7 0 21 -9 31
-20z m-131 -96 c3 -8 2 -12 -4 -9 -6 3 -10 10 -10 16 0 14 7 11 14 -7z m114 4
c-2 -6 -10 -14 -16 -16 -7 -2 -10 2 -6 12 7 18 28 22 22 4z m836 -1934 c9 -23
7 -149 -1 -140 -5 4 -8 33 -8 64 0 31 -4 65 -9 75 -5 10 -4 17 2 17 5 0 13 -7
16 -16z m-94 -89 c5 3 8 11 5 16 -4 5 -2 9 3 9 5 0 15 -12 22 -26 12 -22 12
-27 0 -34 -21 -14 -36 -12 -22 2 18 18 14 30 -7 19 -16 -9 -22 -6 -37 17 l-17
27 21 -18 c11 -11 26 -16 32 -12z m340 -64 c0 -33 -21 -101 -32 -101 -5 0 -8
6 -7 13 2 6 -1 26 -5 43 -4 18 -2 52 5 80 l13 49 12 -30 c7 -17 13 -41 14 -54z
m-395 49 c-3 -5 -13 -10 -21 -10 -8 0 -12 5 -9 10 3 6 13 10 21 10 8 0 12 -4
9 -10z m488 -55 c4 -20 -1 -45 -13 -70 -11 -22 -19 -31 -18 -20 1 11 -3 30
-10 42 -8 15 -9 29 -3 45 5 13 12 32 16 43 5 17 8 17 14 5 5 -8 11 -29 14 -45z
m88 -60 c-7 -30 -17 -55 -23 -55 -6 0 -9 3 -5 6 3 3 1 19 -5 35 -7 21 -6 44 3
81 l12 53 15 -32 c13 -27 13 -41 3 -88z m-279 28 c-9 -25 -10 -21 -10 27 0 48
1 52 10 28 6 -19 6 -37 0 -55z m383 10 c5 -31 2 -48 -11 -68 -16 -25 -19 -26
-25 -9 -11 28 -10 64 2 108 13 46 23 36 34 -31z m95 -17 c-1 -36 -28 -108 -30
-81 -1 6 -3 24 -6 40 -2 17 -2 50 2 75 5 41 7 43 20 25 8 -10 14 -37 14 -59z
m94 47 c11 -36 8 -79 -6 -106 l-16 -28 -10 28 c-6 19 -6 44 2 76 11 49 21 59
30 30z m105 -63 c0 -20 -38 -89 -40 -72 -3 33 -2 61 5 102 l8 45 14 -30 c7
-16 13 -37 13 -45z m-832 38 c-3 -8 -6 -5 -6 6 -1 11 2 17 5 13 3 -3 4 -12 1
-19z m918 -24 c6 -35 -9 -94 -24 -94 -10 0 -13 59 -6 103 8 44 20 41 30 -9z
m-2858 20 c-1 -2 -122 -8 -267 -14 -824 -32 -1464 -82 -2225 -175 -254 -31
-352 -40 -344 -31 6 6 358 52 699 90 561 64 1451 126 2000 139 90 2 145 -2
137 -9z m2949 -8 c3 -14 2 -32 -3 -41 -14 -25 -36 6 -27 39 8 33 22 33 30 2z
m87 2 c4 -14 0 -26 -11 -35 -16 -13 -16 -13 2 -11 10 2 21 -3 23 -9 3 -8 -5
-13 -20 -13 -25 0 -25 1 -19 73 3 24 19 21 25 -5z m96 -25 c10 -35 6 -43 -22
-43 -15 0 -18 5 -13 23 3 12 6 33 6 47 0 31 17 15 29 -27z m86 -13 c8 -37 -2
-85 -21 -101 -16 -13 -19 2 -3 18 7 7 6 15 -5 25 -12 13 -13 22 -4 52 14 44
24 46 33 6z m94 -3 c9 -27 8 -41 -5 -72 -20 -48 -34 -31 -28 34 8 80 16 89 33
38z m-1419 14 c0 -5 -10 -11 -22 -14 -22 -6 -22 -6 -4 8 23 17 26 18 26 6z
m30 -51 c-18 -33 -25 -15 -9 22 9 23 15 28 17 16 2 -9 -2 -27 -8 -38z m1485
17 c6 -33 -6 -80 -24 -91 -6 -4 -8 10 -6 36 1 24 3 53 4 66 2 33 19 27 26 -11z
m179 -21 c6 -34 -9 -86 -26 -86 -9 0 -10 40 -2 92 8 44 19 42 28 -6z m87 15
c-9 -6 -15 -28 -15 -62 -1 -35 -6 -54 -15 -57 -11 -4 -13 6 -8 50 6 63 26 103
42 87 7 -7 5 -13 -4 -18z m-175 -7 c7 -26 -21 -103 -32 -91 -9 8 7 117 17 117
5 0 12 -12 15 -26z m-572 -10 c4 -15 2 -32 -3 -37 -8 -8 -11 -5 -12 9 0 10 -2
27 -4 37 -5 28 12 20 19 -9z m103 -10 c-3 -3 -12 -4 -19 -1 -8 3 -5 6 6 6 11
1 17 -2 13 -5z m74 -27 c-8 -8 -11 -7 -11 4 0 9 3 19 7 23 4 4 9 2 11 -4 3 -7
-1 -17 -7 -23z"/>
<path d="M43538 46383 c-2 -5 0 -80 4 -168 5 -88 10 -505 12 -928 2 -426 7
-768 12 -770 19 -5 25 311 19 933 -7 790 -12 940 -35 940 -5 0 -10 -3 -12 -7z"/>
<path d="M42240 44441 c0 -5 7 -11 14 -14 10 -4 13 -1 9 9 -6 15 -23 19 -23 5z"/>
<path d="M41458 44353 c7 -3 16 -2 19 1 4 3 -2 6 -13 5 -11 0 -14 -3 -6 -6z"/>
<path d="M41498 44353 c7 -3 16 -2 19 1 4 3 -2 6 -13 5 -11 0 -14 -3 -6 -6z"/>
<path d="M43551 43514 c0 -11 3 -14 6 -6 3 7 2 16 -1 19 -3 4 -6 -2 -5 -13z"/>
<path d="M43467 42311 c-4 -17 -3 -21 5 -13 5 5 8 16 6 23 -3 8 -7 3 -11 -10z"/>
<path d="M16701 47979 c13 -25 1 -81 -37 -170 -44 -105 -27 -143 75 -173 79
-23 90 -21 59 12 -35 37 -38 60 -23 154 15 97 7 136 -36 172 -37 32 -54 34
-38 5z"/>
<path d="M17897 47960 c4 -30 -3 -63 -32 -140 -33 -86 -37 -103 -27 -125 14
-30 76 -61 142 -71 l45 -7 -32 30 c-37 35 -39 47 -22 170 14 95 4 131 -41 163
-16 11 -30 20 -33 20 -3 0 -3 -18 0 -40z"/>
<path d="M16355 47905 c-5 -2 -22 -6 -38 -9 -33 -8 -103 -68 -123 -108 -14
-26 -18 -28 -52 -22 l-37 7 27 -25 c38 -37 48 -85 48 -240 0 -114 -3 -138 -16
-146 -14 -8 -14 -10 0 -21 12 -10 16 -32 16 -83 0 -61 -2 -71 -20 -75 -19 -5
-28 -23 -12 -23 19 0 32 -56 32 -141 0 -70 3 -91 15 -95 8 -4 15 -11 15 -16 0
-10 -30 -7 -62 7 -28 11 -24 -46 5 -73 29 -27 52 -28 108 -2 24 11 59 20 76
20 31 0 32 1 21 25 -6 13 -19 27 -30 30 -17 6 -18 21 -18 231 0 123 3 224 7
224 4 0 27 -8 50 -17 l43 -18 0 -77 c0 -72 -2 -78 -21 -78 l-20 0 20 -26 c19
-24 21 -40 21 -178 0 -176 -8 -213 -58 -268 l-37 -41 39 6 c70 11 128 48 161
101 l30 49 3 236 c2 143 8 241 14 248 7 9 4 18 -12 31 l-22 18 42 42 c44 44
49 66 8 38 -12 -9 -36 -16 -52 -16 -31 0 -96 20 -96 30 0 3 11 27 25 54 29 56
32 111 9 144 -20 29 -36 29 -25 0 15 -41 -30 -128 -99 -193 l-32 -30 4 185 c3
172 5 188 26 226 13 22 36 48 50 57 l27 16 -25 0 c-14 0 -29 -2 -35 -4z"/>
<path d="M18257 47896 c-56 -20 -104 -62 -119 -102 -12 -35 -14 -36 -53 -30
-39 6 -40 6 -19 -11 42 -34 44 -52 44 -317 0 -221 -2 -256 -15 -256 -8 0 -15
-4 -15 -9 0 -5 7 -14 15 -21 12 -10 15 -39 15 -139 0 -141 14 -213 51 -259 28
-37 88 -68 144 -77 l40 -6 -26 23 c-15 13 -35 39 -45 58 -18 33 -19 69 -22
518 -2 336 1 495 9 524 6 25 26 58 49 80 l38 38 -27 0 c-14 -1 -43 -7 -64 -14z"/>
<path d="M19736 47825 c-56 -74 -61 -161 -13 -234 l25 -38 -46 -40 c-26 -22
-57 -46 -69 -53 -18 -12 -20 -17 -11 -34 7 -12 14 -70 16 -129 4 -104 4 -108
-17 -114 -25 -6 -26 -11 -5 -34 11 -13 18 -45 21 -112 5 -90 4 -96 -21 -133
-35 -52 -33 -57 15 -33 l40 22 111 -46 c126 -53 121 -54 191 34 l38 48 -48 -5
c-34 -4 -68 1 -118 18 l-70 23 0 148 0 149 38 13 c85 29 170 113 170 169 0 15
-35 66 -94 140 -52 64 -102 131 -111 148 -20 37 -23 80 -7 110 21 39 1 29 -35
-17z m120 -429 c15 -27 14 -31 -3 -54 -11 -15 -34 -32 -51 -39 l-32 -13 0 107
1 108 35 -40 c19 -22 42 -53 50 -69z"/>
<path d="M18538 47725 c-46 -40 -78 -95 -78 -134 0 -33 -7 -41 -70 -90 -58
-46 -67 -57 -57 -69 7 -9 13 -59 16 -129 3 -110 2 -115 -18 -120 -21 -5 -21
-6 -4 -25 14 -16 19 -41 21 -118 4 -92 2 -101 -22 -137 -30 -43 -34 -63 -8
-40 36 33 66 31 172 -12 56 -23 108 -41 115 -41 16 0 76 60 99 99 18 33 18 33
-2 22 -31 -16 -59 -14 -144 15 l-78 26 0 123 0 124 51 15 c38 12 56 13 71 5
34 -18 33 0 -1 35 l-33 34 42 22 c59 30 90 66 90 105 0 24 -13 47 -56 96 -31
35 -63 78 -70 96 -16 38 -18 89 -4 98 12 7 13 25 3 25 -5 0 -20 -12 -35 -25z
m-9 -278 c59 -77 53 -118 -22 -146 l-27 -11 0 105 c0 58 2 105 4 105 2 0 22
-24 45 -53z"/>
<path d="M19387 47719 c-47 -39 -80 -102 -75 -141 4 -26 -3 -36 -58 -81 -50
-41 -61 -55 -53 -69 5 -9 9 -69 9 -132 0 -96 -3 -116 -15 -116 -8 0 -15 -3
-15 -6 0 -3 7 -12 15 -20 11 -12 15 -40 15 -122 0 -91 -3 -111 -20 -132 -30
-39 -25 -54 10 -28 36 26 56 22 187 -35 l82 -36 27 21 c28 23 84 95 84 110 0
5 -9 4 -19 -2 -30 -15 -60 -12 -137 13 l-69 24 -2 259 -2 259 35 -39 c39 -45
55 -90 43 -123 -5 -13 -6 -23 -3 -23 3 0 31 21 61 47 89 76 89 101 5 194 -76
83 -103 154 -70 187 26 26 -1 19 -35 -9z"/>
<path d="M15480 47716 c14 -8 36 -34 50 -58 24 -42 25 -50 28 -259 l4 -216
-23 -6 c-23 -6 -23 -6 -3 -28 15 -17 20 -39 22 -109 l4 -89 -41 -20 c-22 -12
-43 -21 -46 -21 -3 0 -5 126 -5 279 l0 280 34 12 c40 14 39 24 -3 32 -18 4
-44 23 -66 51 l-38 44 -48 -29 c-61 -38 -71 -65 -35 -94 26 -21 26 -21 26
-164 0 -135 -1 -143 -20 -148 -20 -5 -20 -6 -3 -25 12 -14 18 -42 21 -107 l4
-88 -37 -22 c-21 -12 -39 -20 -42 -18 -2 3 -4 147 -3 321 0 174 -3 316 -7 316
-4 0 -17 -9 -29 -21 -12 -11 -47 -28 -79 -38 -48 -15 -54 -19 -41 -31 13 -10
16 -37 16 -146 0 -124 -1 -133 -20 -139 l-20 -6 20 -26 c26 -33 29 -176 5
-204 -15 -15 -13 -17 22 -24 48 -9 109 -44 152 -89 l34 -35 37 30 c20 16 53
32 73 36 32 5 41 1 72 -30 l36 -36 20 20 c25 25 80 49 111 49 13 0 34 -7 46
-16 32 -22 35 -14 12 24 -19 31 -20 54 -23 370 -2 327 -3 338 -24 372 -46 74
-118 120 -185 120 l-33 -1 25 -13z"/>
<path d="M16947 47590 c-25 -16 -53 -42 -61 -59 -14 -26 -19 -29 -44 -22 -46
14 -95 41 -128 72 l-30 29 -32 -44 c-39 -53 -39 -63 -7 -78 l25 -11 0 -149 c0
-141 -1 -148 -20 -148 -11 0 -20 -4 -20 -10 0 -5 4 -10 8 -10 19 0 32 -56 32
-141 0 -70 3 -91 15 -95 8 -4 15 -10 15 -15 0 -12 -47 -11 -55 1 -12 19 -25
10 -25 -19 0 -20 9 -37 30 -55 l30 -25 65 25 c36 13 76 24 89 24 19 0 23 4 19
21 -3 11 -16 25 -29 30 l-24 9 0 275 0 275 25 10 c27 10 74 -2 87 -23 4 -7 8
-72 8 -144 0 -130 -1 -133 -22 -133 l-21 0 21 -23 c19 -21 22 -34 22 -120 0
-87 2 -97 22 -111 17 -12 19 -16 6 -21 -8 -3 -27 -1 -41 4 -25 10 -27 9 -27
-18 0 -16 10 -37 24 -51 27 -24 39 -24 111 4 22 8 55 15 72 16 31 0 32 1 21
25 -6 13 -19 27 -30 30 -17 6 -18 23 -18 291 0 241 2 284 14 284 8 0 17 -4 21
-9 3 -5 19 -12 35 -16 l30 -7 0 -139 c0 -136 -1 -139 -22 -139 -21 0 -21 0 -2
-21 17 -18 19 -40 22 -170 4 -184 -9 -241 -66 -289 l-37 -32 43 6 c86 13 152
63 182 137 8 19 19 37 24 41 23 16 95 7 179 -22 79 -28 91 -30 128 -19 77 24
179 143 179 211 0 41 -42 109 -98 156 -171 145 -232 220 -232 285 0 32 5 33
48 7 25 -15 32 -25 27 -39 -10 -31 19 -85 67 -124 25 -21 48 -37 52 -37 3 0 6
23 6 50 0 56 18 100 58 143 l26 27 -33 0 c-41 0 -94 27 -152 78 l-46 41 -39
-40 c-45 -46 -121 -89 -159 -89 l-27 0 36 42 c20 23 36 45 36 49 0 3 -18 -2
-40 -13 -50 -25 -104 -18 -159 23 l-40 28 -30 -29 c-37 -37 -47 -37 -66 -1 -8
17 -19 32 -23 35 -5 3 -30 -8 -55 -24z m383 -186 c17 -63 40 -102 97 -167 28
-31 32 -41 23 -57 -10 -18 -7 -20 20 -20 24 0 46 -15 105 -71 66 -63 135 -150
135 -170 0 -4 -15 -13 -34 -19 -30 -9 -43 -8 -93 13 -39 16 -57 28 -54 38 23
80 -4 145 -74 179 -44 21 -106 24 -145 7 -13 -6 -15 16 -17 164 -2 185 7 210
37 103z m58 -326 c13 -13 22 -33 22 -50 0 -32 -40 -96 -87 -140 l-29 -28 1
123 c0 67 4 125 9 129 13 9 56 -9 84 -34z"/>
<path d="M18807 47598 c-21 -10 -51 -37 -67 -60 -33 -45 -37 -58 -17 -58 8 0
21 -8 30 -18 14 -15 17 -42 17 -150 0 -127 -1 -132 -21 -132 l-20 0 20 -26
c18 -23 21 -41 21 -120 0 -81 2 -95 20 -107 27 -19 16 -26 -25 -17 -40 9 -52
-8 -33 -48 20 -42 57 -49 116 -24 28 12 64 22 81 22 38 0 41 21 6 48 l-25 20
0 282 c0 221 3 281 13 276 6 -2 29 -10 50 -17 l37 -12 0 -135 c0 -125 -1 -134
-20 -139 -25 -7 -25 -12 -2 -29 15 -11 17 -32 17 -176 0 -187 -9 -225 -64
-277 l-36 -34 45 7 c63 10 119 44 155 94 l30 44 3 340 3 339 34 35 c46 46 44
56 -5 32 -51 -25 -104 -18 -161 24 l-41 30 -34 -33 c-20 -20 -37 -29 -42 -23
-5 5 -17 21 -28 35 l-20 27 -37 -20z"/>
<path d="M15833 47590 c-31 -18 -93 -93 -93 -112 0 -4 8 -8 19 -8 37 0 46 -27
50 -162 3 -124 2 -128 -18 -128 -25 0 -26 -7 -4 -32 13 -15 18 -43 21 -116 3
-69 9 -102 20 -114 14 -17 13 -18 -7 -18 -12 0 -31 5 -42 10 -17 9 -19 7 -19
-19 0 -20 9 -37 30 -54 31 -27 38 -27 121 -1 25 8 69 16 98 17 28 1 51 7 51
13 0 24 -47 54 -83 54 l-37 0 0 285 c0 157 2 285 5 285 2 0 23 -10 46 -22 31
-16 47 -19 67 -12 29 10 58 47 67 86 7 26 6 26 -32 21 -32 -4 -42 -1 -62 21
l-25 26 -36 -35 -37 -36 -24 35 c-28 42 -33 43 -76 16z"/>
<path d="M17841 47559 c-33 -48 -33 -50 -15 -64 10 -8 22 -15 27 -15 4 0 7
-67 7 -150 0 -127 -2 -150 -15 -150 -8 0 -15 -4 -15 -9 0 -5 7 -14 15 -21 11
-10 15 -36 15 -111 0 -88 2 -100 22 -119 l22 -20 -23 0 c-12 0 -31 5 -42 11
-19 10 -20 8 -17 -27 2 -26 11 -43 29 -56 26 -20 26 -20 79 3 29 12 68 23 86
23 41 1 44 18 9 50 l-25 23 0 275 0 276 30 6 c32 6 41 26 12 26 -28 0 -120 49
-141 76 -10 13 -20 24 -22 24 -2 0 -19 -23 -38 -51z"/>
<path d="M40470 27920 c-54 -42 -294 -79 -507 -79 -128 0 -153 -6 -188 -48
-15 -18 -48 -31 -135 -53 -63 -16 -130 -30 -148 -30 -38 0 -225 -39 -362 -75
-52 -13 -178 -40 -280 -60 -102 -19 -266 -53 -365 -75 -99 -23 -232 -50 -295
-61 -221 -37 -355 -79 -499 -156 -152 -81 -391 -247 -496 -343 -73 -68 -119
-101 -170 -125 -38 -18 -92 -48 -120 -67 -326 -224 -404 -273 -482 -305 -101
-40 -288 -133 -347 -171 -22 -15 -89 -61 -148 -103 -78 -56 -126 -82 -180 -99
-41 -13 -95 -39 -123 -60 -27 -21 -113 -81 -190 -135 -77 -54 -152 -109 -167
-123 -20 -18 -48 -28 -107 -39 -120 -20 -240 -58 -380 -118 -143 -62 -691
-337 -916 -460 -82 -45 -198 -108 -258 -139 -195 -102 -680 -376 -737 -416
-14 -10 -90 -54 -170 -99 -136 -77 -203 -118 -505 -308 -130 -82 -432 -265
-585 -355 -52 -31 -140 -83 -195 -117 -55 -33 -154 -93 -220 -132 -66 -40
-201 -121 -300 -182 -99 -61 -218 -134 -265 -162 -47 -29 -128 -76 -180 -105
-98 -54 -324 -187 -490 -291 -52 -32 -102 -58 -110 -58 -8 -1 -60 26 -115 59
-55 33 -127 75 -160 95 -186 111 -255 150 -381 218 -76 41 -200 109 -274 152
-130 75 -224 128 -470 268 -63 36 -165 93 -227 128 -62 35 -161 91 -220 123
-59 33 -164 93 -233 134 -69 42 -222 126 -340 187 -189 98 -486 266 -620 349
-25 15 -115 67 -200 116 -192 109 -276 161 -360 221 -36 26 -105 69 -155 94
-118 62 -247 152 -370 260 -172 151 -265 226 -322 261 -70 42 -166 59 -296 51
-54 -4 -108 -2 -120 3 -35 14 -172 140 -215 197 -52 70 -126 129 -191 154 -67
25 -92 42 -206 144 -285 253 -312 275 -405 331 -36 21 -81 52 -100 70 -19 17
-60 48 -90 68 -77 52 -197 154 -315 267 -94 90 -106 98 -200 134 -55 21 -104
42 -110 46 -5 4 -55 32 -110 62 -210 114 -307 169 -358 201 -114 72 -283 137
-434 166 -138 27 -200 43 -348 90 -192 62 -751 196 -900 216 -102 13 -180 36
-205 58 -44 41 -70 48 -204 57 -72 5 -144 11 -161 15 -16 3 -63 12 -104 20
-66 13 -99 27 -218 89 -45 23 -66 13 -116 -53 -55 -73 -139 -133 -238 -172
-369 -142 -827 -233 -1387 -276 -304 -23 -768 -44 -967 -44 -188 1 -321 14
-565 56 -80 13 -201 34 -270 45 -446 75 -742 180 -1086 387 -178 106 -198 111
-283 68 -84 -43 -348 -112 -478 -126 -46 -5 -104 -18 -130 -30 -26 -12 -77
-28 -113 -36 -126 -26 -515 -150 -585 -186 -17 -9 -70 -27 -120 -41 -49 -13
-121 -40 -160 -59 -38 -20 -129 -56 -200 -81 -72 -25 -160 -59 -196 -76 -36
-17 -103 -38 -150 -46 -46 -9 -119 -27 -163 -41 -119 -37 -302 -70 -496 -89
-145 -14 -192 -23 -275 -51 -55 -19 -156 -52 -225 -73 -278 -86 -499 -189
-606 -283 -31 -27 -74 -58 -96 -69 -22 -11 -72 -47 -112 -79 -39 -32 -96 -72
-125 -89 -29 -18 -88 -58 -130 -90 -96 -73 -202 -131 -311 -171 -47 -17 -112
-44 -145 -60 -53 -26 -70 -29 -155 -29 -95 0 -184 -19 -224 -46 -10 -8 -36
-40 -57 -72 -65 -99 -70 -104 -123 -137 -53 -34 -207 -103 -336 -151 -70 -26
-83 -36 -190 -145 -63 -65 -133 -128 -155 -141 -37 -21 -140 -92 -276 -188
-31 -22 -76 -49 -100 -59 -24 -11 -102 -54 -174 -97 -71 -43 -177 -101 -235
-128 -58 -27 -175 -83 -260 -124 -85 -42 -202 -97 -260 -124 -221 -102 -727
-367 -802 -420 -15 -11 -60 -36 -100 -56 -40 -19 -91 -48 -113 -63 -48 -33
-311 -182 -415 -235 -41 -21 -138 -73 -215 -116 -154 -85 -287 -150 -530 -259
-155 -70 -1068 -527 -1560 -782 -132 -68 -302 -152 -378 -187 -140 -65 -214
-117 -243 -172 -8 -16 -21 -75 -28 -132 -9 -69 -30 -150 -65 -252 -28 -83 -57
-180 -66 -216 -22 -97 -54 -392 -65 -611 -15 -266 -26 -389 -69 -728 -11 -91
-30 -253 -41 -360 -12 -107 -27 -235 -35 -285 -40 -253 -105 -787 -140 -1165
-15 -157 -30 -282 -61 -505 -17 -117 -19 -544 -4 -735 23 -298 30 -370 40
-416 6 -26 14 -116 19 -198 7 -138 10 -154 33 -191 41 -63 92 -105 258 -212
221 -142 542 -362 633 -435 43 -35 111 -89 150 -121 40 -31 117 -90 172 -129
147 -105 516 -400 675 -541 25 -21 97 -77 161 -123 64 -46 150 -111 190 -145
120 -101 426 -328 499 -371 25 -14 83 -55 130 -91 93 -70 307 -229 391 -291
65 -48 248 -175 379 -264 146 -99 382 -233 715 -407 123 -65 231 -135 460
-300 55 -40 129 -86 165 -103 75 -36 192 -145 359 -334 57 -65 107 -118 111
-118 3 0 94 -93 201 -207 373 -397 494 -516 517 -509 38 13 425 280 608 421
278 214 435 315 488 315 25 0 36 -42 36 -139 0 -48 4 -168 9 -267 6 -98 13
-375 16 -614 3 -239 8 -484 11 -545 2 -60 8 -324 14 -585 15 -774 29 -1280 40
-1530 6 -129 13 -633 15 -1120 2 -578 7 -904 14 -939 6 -29 8 -58 4 -64 -3 -6
-10 -63 -15 -126 -4 -64 -12 -145 -17 -181 -6 -36 -15 -143 -22 -239 -13 -212
-20 -201 120 -201 190 1 344 18 497 55 190 46 217 47 479 10 55 -8 204 -16
330 -20 127 -3 354 -10 505 -15 327 -13 1744 -25 2295 -21 310 2 415 -1 510
-13 66 -9 239 -21 385 -26 146 -6 329 -15 407 -20 78 -6 186 -10 240 -10 54 0
152 -7 218 -16 79 -11 210 -17 385 -18 146 -2 281 -6 300 -9 19 -4 105 -12
190 -17 85 -6 225 -15 310 -21 85 -6 319 -12 520 -13 253 -1 388 -6 440 -15
59 -11 187 -12 615 -8 534 6 685 15 930 51 55 8 217 17 360 21 264 7 479 28
613 61 41 11 115 18 192 19 69 1 168 6 221 10 60 4 144 3 222 -5 111 -11 139
-11 232 5 85 14 145 16 317 12 117 -3 256 -10 308 -16 68 -7 118 -7 177 1 63
9 116 9 220 0 76 -6 224 -16 328 -22 169 -10 241 -19 445 -51 34 -6 99 -5 170
2 143 14 263 5 450 -31 218 -43 429 -70 586 -77 139 -6 142 -6 154 16 14 27
27 137 39 336 5 83 15 164 21 180 8 20 10 59 5 117 -5 65 -2 99 9 139 9 29 16
89 16 134 0 62 6 99 26 155 21 62 26 92 26 189 0 64 -5 150 -12 192 -18 114
-10 265 17 309 29 48 41 199 48 600 2 173 9 394 14 490 5 96 10 284 10 417 1
133 5 342 11 465 5 123 12 313 15 423 3 110 10 325 16 477 13 340 12 251 10
841 -2 501 2 567 33 567 7 0 63 -47 125 -105 62 -58 126 -112 143 -121 18 -9
62 -17 112 -18 62 -2 105 -12 186 -40 58 -20 119 -36 135 -36 66 0 361 345
558 652 41 64 95 128 108 128 5 0 96 42 201 94 106 51 223 103 260 115 100 31
368 165 533 264 268 161 585 370 669 440 108 89 311 236 566 406 319 214 440
296 637 433 264 185 273 191 402 299 67 57 151 127 186 154 34 28 93 77 131
111 38 33 116 96 174 139 58 43 140 107 184 142 78 63 79 63 105 47 14 -9 157
-106 316 -214 271 -184 383 -253 762 -469 81 -47 211 -124 288 -171 77 -48
203 -122 280 -165 77 -43 224 -133 328 -199 103 -67 238 -152 300 -191 63 -38
183 -113 268 -166 311 -195 695 -390 791 -402 28 -4 113 -37 205 -81 142 -66
305 -134 508 -210 61 -23 82 -38 160 -116 l90 -90 7 -368 c4 -202 14 -486 23
-632 8 -146 19 -398 25 -560 6 -162 15 -378 20 -480 14 -264 15 -1211 1 -1496
-17 -366 -16 -910 3 -1077 11 -99 16 -233 16 -470 0 -399 8 -491 61 -723 23
-99 44 -222 48 -274 8 -103 28 -202 100 -495 41 -171 48 -191 71 -202 19 -9
73 -9 220 -2 107 5 359 14 560 19 201 5 397 13 435 19 39 5 149 12 245 16 235
8 435 23 550 41 192 30 227 37 349 66 167 39 226 43 367 25 265 -35 333 -40
447 -32 61 5 157 8 212 7 55 -1 193 -1 306 -2 143 0 228 -4 277 -15 38 -8 182
-19 318 -25 137 -6 285 -18 329 -26 179 -35 305 -54 390 -59 189 -12 974 -29
1305 -30 236 0 382 -5 462 -14 131 -16 294 -7 495 28 140 25 569 37 768 21 77
-6 176 -13 220 -17 61 -4 110 0 205 17 138 25 272 30 485 16 133 -9 270 3 470
39 134 25 237 23 715 -15 158 -13 522 -8 630 8 52 8 166 10 370 4 162 -4 333
-4 380 0 109 8 205 9 770 5 256 -2 503 -7 550 -11 47 -4 292 -9 545 -10 270
-2 485 -8 520 -14 111 -20 399 -43 535 -42 227 0 230 3 242 218 9 178 15 797
9 1012 -3 92 0 183 7 225 6 39 16 156 23 260 6 105 17 244 25 310 19 166 60
1298 73 2015 27 1457 32 1706 37 1875 2 99 6 373 9 609 l4 429 28 29 c46 49
161 132 292 213 72 44 140 94 163 120 22 25 54 49 76 56 20 6 82 35 137 64 55
29 111 56 125 60 14 4 103 45 199 92 95 47 208 97 250 113 42 16 101 38 131
49 83 30 544 177 635 201 378 102 808 257 1034 373 187 97 650 327 657 327 12
0 1062 539 1098 564 62 42 593 305 691 343 49 19 176 80 280 137 105 56 215
114 246 128 208 95 255 175 282 488 18 197 16 733 -3 941 -14 155 -7 209 40
312 15 34 48 150 74 257 26 107 62 240 80 295 64 191 134 462 160 620 8 50 29
196 46 325 17 129 37 285 45 345 45 336 48 398 42 755 -4 190 -12 397 -19 460
-7 70 -12 282 -13 545 l0 430 -39 53 c-26 36 -73 78 -145 127 -58 41 -155 110
-216 153 -125 89 -284 198 -595 405 -717 478 -643 429 -850 572 -74 52 -263
181 -420 286 -157 106 -350 238 -430 295 -80 56 -183 126 -230 155 -118 73
-383 252 -455 309 -82 63 -370 253 -596 392 -102 63 -228 147 -280 185 -52 38
-154 104 -228 147 -74 42 -155 94 -180 115 -25 20 -84 66 -131 101 -47 35
-116 91 -155 125 -87 77 -154 125 -225 160 -49 25 -133 83 -390 269 -41 30
-126 89 -188 132 -79 53 -137 103 -195 166 -107 117 -272 249 -367 295 -41 19
-122 47 -180 60 -139 33 -185 52 -289 118 -47 30 -111 62 -141 71 -30 9 -102
42 -160 74 -381 210 -531 278 -790 359 -74 23 -200 65 -280 93 -460 161 -625
213 -844 268 -404 100 -546 148 -766 260 -30 15 -147 58 -260 95 -166 54 -233
82 -352 146 -80 43 -181 90 -225 103 -346 107 -420 131 -447 147 -21 12 -62
20 -131 24 -177 11 -391 71 -507 141 -88 53 -83 54 -313 -81 -234 -137 -246
-144 -373 -206 -144 -70 -246 -105 -455 -159 -312 -79 -708 -130 -1022 -130
-206 0 -623 33 -760 61 -27 5 -156 25 -285 45 -337 50 -478 77 -710 133 -190
46 -497 142 -601 188 -80 36 -156 103 -215 191 -31 45 -66 89 -77 97 -29 20
-67 18 -97 -5z m3160 -3894 c234 -197 459 -360 585 -423 28 -14 51 -26 53 -28
1 -1 -7 -31 -17 -66 -17 -55 -56 -211 -91 -369 -22 -99 -60 -375 -69 -511 -7
-92 -11 -883 -11 -2196 l0 -2053 901 0 900 0 127 65 c124 62 247 136 307 183
58 45 152 143 171 177 10 20 24 33 30 31 19 -7 524 -346 524 -352 0 -2 -74
-84 -164 -182 -370 -400 -596 -699 -735 -972 -98 -191 -141 -327 -141 -444 0
-24 -2 -45 -5 -47 -2 -3 -100 11 -216 31 l-212 35 -34 63 c-61 117 -137 216
-253 332 -131 132 -253 219 -403 290 -220 104 -407 150 -679 166 l-118 7 0
-956 0 -955 68 -57 c37 -31 110 -85 163 -121 l96 -64 11 -87 c10 -71 33 -235
45 -313 2 -12 -16 -16 -88 -22 -413 -35 -965 -345 -1461 -822 l-132 -126 -74
123 c-41 67 -124 201 -185 298 l-110 176 46 26 c176 99 338 288 410 476 58
153 59 176 66 1341 4 586 7 1069 8 1075 6 36 -699 -3 -1088 -61 -560 -83 -939
-190 -1282 -365 -279 -141 -465 -296 -603 -500 -23 -32 -44 -59 -48 -59 -5 0
-28 13 -53 28 -54 35 -128 115 -194 211 -157 228 -294 402 -511 646 -238 268
-524 538 -625 590 -28 15 -29 18 -29 84 l0 69 43 7 c302 46 521 94 611 134 55
24 97 76 979 1216 269 347 520 673 678 880 37 50 123 162 191 250 238 312 383
504 646 855 596 797 600 803 660 1020 56 201 55 458 -3 690 -6 24 4 33 142
124 349 233 561 394 710 541 69 68 109 116 123 148 l21 48 87 -82 c48 -45 152
-136 232 -203z m-26884 -2381 l36 -35 -7 -133 -7 -134 29 -21 c41 -30 24 -36
-49 -17 -67 17 -118 55 -118 88 0 11 16 61 36 111 28 70 35 101 31 134 -2 23
-1 42 4 42 4 0 24 -16 45 -35z m1192 1 c34 -32 37 -39 37 -88 0 -29 -4 -85 -9
-124 l-8 -71 33 -38 33 -38 -34 8 c-168 34 -188 65 -131 208 36 90 47 142 32
151 -6 4 -11 11 -11 17 0 18 21 9 58 -25z m-1528 -64 c0 -5 -11 -14 -25 -20
-13 -6 -34 -31 -47 -54 -20 -39 -22 -60 -25 -223 l-4 -180 47 50 c58 62 88
125 79 166 -6 28 -5 30 13 20 40 -22 44 -95 7 -167 -14 -27 -25 -50 -25 -51 0
0 14 -6 31 -12 44 -15 92 -14 115 4 50 38 45 2 -8 -48 l-41 -39 24 -19 c19
-14 22 -20 12 -30 -10 -10 -13 -67 -13 -216 0 -111 -5 -224 -10 -251 -20 -90
-105 -161 -193 -162 l-38 0 36 31 c48 43 57 86 56 268 -1 119 -5 160 -16 178
-19 29 -19 33 3 33 15 0 17 10 17 74 l0 74 -35 12 c-19 6 -41 14 -47 16 -10 5
-13 -42 -13 -214 l0 -220 24 -15 c13 -9 26 -25 29 -36 4 -18 1 -21 -28 -21
-18 0 -54 -9 -80 -20 -26 -11 -55 -20 -66 -20 -26 0 -69 47 -69 76 0 25 15 40
25 24 3 -5 18 -10 32 -10 25 0 25 1 10 18 -13 14 -17 39 -17 109 0 75 -3 95
-20 116 -11 14 -20 28 -20 31 0 3 9 6 20 6 18 0 20 7 20 75 0 58 -4 77 -15 81
-8 4 -15 10 -15 15 0 5 7 9 15 9 13 0 15 24 15 155 0 166 -7 199 -54 238 -21
18 -21 18 19 12 38 -5 41 -4 63 35 35 61 112 105 190 109 12 1 22 -3 22 -7z
m1908 -22 c-67 -55 -68 -65 -68 -593 0 -516 1 -528 58 -584 19 -19 32 -36 30
-38 -1 -2 -26 1 -53 6 -65 12 -123 53 -152 108 -21 40 -23 57 -23 191 0 132
-2 150 -20 173 -11 14 -20 28 -20 31 0 3 9 6 20 6 19 0 20 7 20 240 0 258 -6
295 -53 333 -22 18 -22 18 18 12 38 -5 41 -4 60 32 33 62 112 107 200 112 15
1 12 -5 -17 -29z m1453 -43 c-14 -14 -14 -72 1 -100 14 -28 115 -159 167 -217
31 -34 40 -53 41 -81 0 -37 -28 -84 -71 -117 -33 -26 -105 -62 -124 -62 -13 0
-15 -21 -15 -148 l0 -148 74 -24 c55 -17 86 -21 120 -17 l47 7 -30 -44 c-32
-47 -88 -99 -99 -92 -4 2 -51 23 -106 46 -103 43 -132 46 -169 13 -29 -26 -30
-8 -3 36 23 36 26 51 26 134 0 79 -3 98 -20 120 -25 32 -25 37 1 37 20 0 21 4
17 118 -2 64 -7 124 -11 132 -5 11 12 30 58 65 36 28 65 51 65 51 0 1 -12 23
-27 50 -46 83 -33 174 35 247 15 16 28 23 30 17 3 -7 -1 -17 -7 -23z m-1191
-96 c0 -6 -4 -13 -10 -16 -5 -3 -10 -23 -10 -44 0 -41 38 -108 85 -151 35 -32
55 -72 55 -108 0 -22 -11 -39 -40 -66 -22 -20 -43 -36 -48 -36 -4 0 -13 -4
-21 -9 -11 -7 -9 -15 13 -43 32 -43 33 -51 2 -37 -17 8 -36 7 -72 -3 l-49 -14
-3 -122 c-1 -67 -1 -122 0 -122 2 0 34 -11 72 -25 71 -26 121 -31 145 -16 9 6
21 3 34 -10 12 -10 32 -19 45 -19 23 0 24 1 10 18 -11 12 -17 45 -20 114 -3
73 -8 101 -21 116 -22 24 -21 32 3 32 19 0 20 7 20 114 0 129 -8 162 -45 176
-25 10 -25 10 -8 37 27 45 63 81 94 94 25 10 32 9 49 -6 11 -10 22 -27 26 -37
5 -18 9 -17 45 18 l39 38 22 -22 c52 -48 135 -65 176 -36 41 28 46 9 9 -32
l-36 -40 -3 -340 -3 -339 -28 -41 c-31 -46 -101 -88 -159 -97 -21 -3 -38 -4
-38 -1 0 3 15 20 34 38 45 46 56 97 56 275 0 138 -2 153 -20 171 -11 11 -20
22 -20 25 0 3 9 5 20 5 19 0 20 7 20 135 0 121 -2 136 -17 141 -10 3 -30 11
-45 19 l-28 14 0 -281 0 -281 25 -23 c28 -26 34 -60 10 -50 -9 3 -45 -6 -81
-19 -37 -14 -72 -25 -79 -25 -26 0 -58 37 -64 74 l-6 38 -32 -45 c-17 -25 -44
-53 -58 -63 -26 -17 -29 -16 -103 16 -124 52 -153 57 -196 31 -43 -27 -44 -23
-11 29 22 35 25 50 25 140 0 87 -3 103 -20 120 -25 25 -25 30 1 30 19 0 20 4
17 118 -2 64 -7 124 -11 132 -5 12 11 30 61 69 50 39 68 59 65 72 -9 33 19 92
65 135 45 44 62 53 62 35z m841 -19 c-26 -48 -4 -103 74 -191 62 -70 71 -91
53 -126 -13 -25 -115 -115 -130 -115 -4 0 -3 11 3 24 15 33 7 62 -36 121 l-35
50 0 -261 0 -260 74 -24 c50 -16 87 -21 115 -17 23 3 41 3 41 0 0 -13 -63 -94
-87 -111 l-27 -20 -80 35 c-126 55 -149 59 -191 34 -19 -11 -35 -17 -35 -14 0
3 12 26 26 50 24 41 26 52 22 138 -2 71 -7 97 -20 112 -23 26 -23 33 3 33 21
0 21 3 16 113 -2 61 -8 121 -11 132 -5 16 6 30 54 68 55 45 60 52 60 88 0 52
20 89 71 133 45 38 57 40 40 8z m-3848 -18 c45 -23 76 -53 98 -96 18 -34 19
-63 19 -374 l0 -336 25 -30 c37 -44 32 -64 -9 -33 -39 29 -129 8 -161 -38 -15
-21 -15 -21 -49 16 -48 52 -94 49 -157 -9 l-25 -24 -48 46 c-51 48 -115 83
-153 84 -24 0 -31 14 -13 25 6 3 10 48 10 99 0 82 -3 95 -21 112 l-21 19 22 5
c22 5 22 9 21 140 -1 74 -6 139 -12 145 -15 15 -10 25 11 25 29 0 91 27 117
52 18 17 24 18 28 7 3 -8 4 -153 3 -322 -2 -169 -2 -307 -1 -307 1 0 18 8 38
17 l35 17 0 87 c0 72 -3 91 -21 113 l-20 26 20 0 c20 0 21 5 21 147 0 147 0
147 -26 168 -23 19 -25 24 -14 42 7 11 34 34 59 50 l46 31 34 -40 c19 -23 53
-49 75 -59 l41 -18 -38 -16 -37 -15 0 -276 c0 -152 3 -274 8 -272 4 3 22 10
40 17 l32 13 0 88 c0 73 -3 92 -21 114 l-20 26 21 0 c21 0 21 1 18 228 -3 222
-3 228 -28 264 -13 20 -36 44 -50 53 -25 16 -25 16 23 11 26 -3 62 -13 80 -22z
m326 -120 c11 -14 22 -30 25 -37 3 -7 19 3 41 26 l36 38 25 -27 c22 -22 31
-26 65 -21 46 6 49 -4 19 -62 -27 -54 -76 -67 -130 -36 -14 8 -28 14 -32 15
-5 0 -8 -128 -8 -284 l0 -285 34 6 c28 4 39 1 60 -20 30 -30 35 -57 8 -50 -10
2 -51 -3 -92 -12 -139 -30 -146 -30 -174 -2 -32 32 -38 94 -8 82 9 -4 28 -10
42 -13 24 -5 24 -4 8 14 -12 14 -17 44 -20 115 -2 79 -7 101 -22 118 -20 22
-20 22 2 28 21 5 22 10 22 119 0 123 -9 163 -40 171 -24 6 -24 7 -6 41 21 40
91 101 118 102 4 0 16 -11 27 -26z m908 -64 c38 -14 59 -18 61 -10 8 23 52 67
86 85 34 18 36 18 55 1 11 -10 23 -28 27 -38 5 -18 9 -17 44 17 l37 36 47 -33
c40 -27 57 -33 101 -33 38 0 59 5 74 19 35 32 24 -1 -15 -44 l-36 -40 27 0
c40 0 90 27 149 81 l53 48 34 -35 c53 -56 113 -87 158 -82 28 2 37 0 34 -9 -3
-7 -9 -13 -14 -13 -5 0 -22 -24 -39 -52 -23 -40 -30 -66 -30 -105 0 -29 -4
-53 -10 -53 -5 0 -34 24 -65 54 -49 48 -55 59 -55 95 0 35 -4 43 -30 56 -37
19 -40 19 -40 -5 0 -52 36 -100 175 -235 162 -158 172 -177 141 -260 -22 -56
-103 -138 -158 -160 -43 -16 -44 -16 -148 20 -129 43 -164 41 -187 -14 -21
-51 -59 -99 -94 -116 -32 -17 -115 -35 -123 -27 -3 2 10 18 28 36 47 44 56 88
56 269 0 144 -2 159 -20 177 -25 25 -25 30 0 30 20 0 20 5 18 135 l-3 136 -42
19 -43 19 0 -281 0 -281 25 -23 c32 -30 32 -51 0 -51 -13 0 -53 -11 -88 -23
-61 -22 -65 -22 -91 -5 -44 29 -50 109 -7 85 11 -5 27 -10 37 -10 16 0 16 2 2
18 -11 12 -17 45 -20 114 -3 73 -8 101 -21 116 -22 24 -21 32 3 32 19 0 20 6
19 108 -1 59 -4 120 -8 137 -8 36 -52 62 -83 48 -20 -9 -21 -17 -21 -279 l0
-270 27 -27 c34 -34 33 -47 -4 -47 -16 0 -52 -9 -80 -20 -64 -25 -78 -25 -107
2 -16 14 -23 33 -23 57 0 27 3 32 12 23 7 -7 25 -12 40 -12 l28 0 -20 20 c-17
17 -20 33 -20 115 0 85 -2 96 -22 115 l-23 21 23 6 c21 5 22 9 22 146 l0 141
-27 22 -27 21 38 51 37 51 34 -33 c19 -19 60 -44 92 -56z m1170 11 c23 -12 49
-21 57 -21 29 0 27 -21 -3 -33 l-31 -11 0 -278 c0 -238 2 -278 15 -278 14 0
35 -29 35 -49 0 -6 -11 -11 -25 -11 -14 0 -48 -9 -77 -20 -29 -11 -63 -20 -75
-20 -28 0 -63 45 -63 81 0 29 13 38 25 19 3 -5 18 -10 33 -10 24 1 25 2 11 13
-13 10 -18 35 -20 114 -3 79 -8 105 -21 120 -23 25 -23 33 2 33 19 0 20 7 20
145 0 145 0 145 -25 157 -32 14 -32 21 6 80 l32 49 31 -29 c17 -17 50 -39 73
-51z m-7681 -1506 c3 -19 1 -87 -5 -152 -6 -65 -13 -194 -16 -288 -3 -93 -8
-180 -10 -191 -9 -42 -6 -1069 6 -2119 6 -583 11 -1073 11 -1090 0 -16 -3
-253 -6 -525 -8 -680 -8 -683 -15 -704 -6 -16 -10 -14 -34 17 -14 19 -38 61
-52 93 -14 33 -37 70 -50 84 -28 30 -75 121 -75 146 0 34 -332 692 -391 775
-10 14 -53 86 -94 159 -67 117 -219 335 -340 486 -22 28 -100 131 -172 230
-132 178 -184 242 -422 516 -166 190 -281 316 -425 462 -65 67 -141 148 -168
181 -28 33 -220 227 -427 431 -207 205 -383 384 -390 398 -13 24 -12 28 8 50
33 35 123 80 247 125 248 88 652 253 726 295 25 15 84 40 130 57 46 17 99 43
118 58 57 45 70 49 221 65 l144 15 160 71 c220 99 273 116 458 155 89 18 221
54 292 78 327 113 466 153 537 156 23 1 28 -4 34 -34z m39842 -63 c146 -122
240 -210 335 -313 114 -123 120 -127 292 -193 171 -64 330 -128 365 -146 19
-9 112 -42 205 -73 94 -30 265 -93 380 -140 116 -47 237 -93 270 -102 140 -39
231 -72 410 -152 218 -97 255 -118 255 -142 0 -29 -1 -30 -344 -237 -108 -65
-207 -132 -331 -224 -71 -53 -164 -119 -205 -148 -85 -58 -395 -297 -581 -446
-145 -117 -232 -192 -389 -337 -155 -143 -490 -429 -518 -442 -16 -7 -26 -7
-34 1 -17 17 -36 252 -42 530 -4 141 -9 340 -12 442 -7 186 3 462 32 905 18
269 17 294 -32 595 -36 222 -66 365 -91 435 -8 22 -19 73 -24 114 -4 40 -13
79 -19 86 -8 10 -7 16 7 23 10 6 20 9 22 6 3 -2 25 -21 49 -42z m-24900 -1
c31 -11 118 -27 193 -35 133 -16 213 -34 255 -59 11 -6 56 -51 99 -99 42 -49
81 -88 85 -88 4 0 20 -19 36 -41 16 -23 65 -69 109 -102 81 -62 180 -146 316
-268 41 -37 90 -74 109 -84 19 -9 55 -40 79 -67 26 -29 67 -61 100 -77 98 -47
203 -114 240 -152 46 -47 64 -56 150 -74 39 -8 110 -34 158 -58 49 -25 129
-59 178 -77 50 -18 131 -54 180 -80 50 -27 125 -62 168 -79 102 -41 190 -85
207 -105 14 -18 -62 -97 -545 -567 -214 -208 -374 -377 -580 -614 -38 -44 -72
-82 -75 -85 -19 -18 -297 -328 -345 -385 -32 -38 -80 -95 -106 -125 -59 -67
-266 -331 -334 -426 -112 -155 -130 -183 -188 -284 -78 -135 -207 -402 -243
-504 -15 -44 -43 -103 -62 -130 -65 -95 -172 -275 -172 -288 -1 -8 -6 -6 -15
7 -12 15 -15 61 -15 240 0 121 -3 290 -6 375 -3 85 -5 162 -4 170 2 15 2 335
0 335 -1 0 -10 183 -15 320 -3 77 -7 383 -10 680 -5 497 -11 633 -36 755 -11
58 -34 224 -51 370 -8 73 -13 238 -13 450 1 534 14 750 61 1027 13 72 14 102
5 143 -17 78 -15 100 9 100 11 0 46 -9 78 -19z m10126 -133 c3 -13 6 -34 6
-47 0 -13 13 -83 29 -155 30 -131 86 -436 122 -661 34 -215 69 -554 84 -825 8
-146 24 -339 35 -430 27 -225 25 -256 -16 -432 -20 -84 -45 -189 -54 -233 -35
-154 -128 -516 -134 -523 -4 -3 -10 -1 -14 5 -10 16 -396 428 -472 503 -131
131 -528 492 -706 643 -66 56 -183 156 -260 222 -123 105 -181 156 -364 320
-24 22 -123 115 -220 206 -97 92 -240 223 -318 293 -149 133 -172 166 -136
193 50 37 404 187 517 219 50 14 142 46 202 71 61 25 146 56 190 70 44 14 124
45 177 69 54 24 121 49 150 55 61 13 118 40 168 79 32 25 162 88 315 153 70
29 294 102 345 112 19 4 71 23 115 43 78 34 183 69 216 71 9 1 19 -9 23 -21z"/>
<path d="M43396 22105 c-53 -19 -79 -47 -80 -87 0 -36 29 -338 44 -458 13
-102 39 -411 50 -600 5 -85 14 -227 20 -315 5 -88 12 -190 14 -228 l4 -67 -47
-23 c-34 -17 -47 -30 -49 -48 -4 -31 28 -48 103 -58 l50 -6 3 -62 c3 -56 5
-63 24 -63 14 0 18 -5 14 -16 -3 -9 -7 -30 -7 -47 l-2 -32 -8 35 c-5 24 -7 10
-4 -44 3 -43 6 -95 7 -115 1 -35 1 -35 8 9 l7 45 1 -47 c1 -27 -2 -48 -7 -48
-9 0 -5 -99 6 -140 11 -45 16 -203 9 -290 -4 -42 -3 -48 4 -25 9 31 4 -832 -6
-1047 -5 -112 -4 -118 14 -118 17 0 21 9 27 51 18 130 7 1538 -14 1757 -4 40
-5 75 -2 77 2 3 33 5 68 5 56 0 63 2 63 20 0 12 -7 20 -17 20 -13 0 -14 3 -5
12 18 18 15 46 -9 84 -11 19 -19 34 -17 35 42 9 48 8 48 -11 0 -26 25 -26 80
3 60 30 72 53 41 78 -13 10 -41 22 -62 25 -22 4 -41 10 -44 14 -2 4 -9 47 -15
96 -6 49 -21 179 -35 289 -14 110 -34 288 -45 395 -11 107 -22 211 -25 230 -3
19 -12 134 -21 255 -9 120 -21 266 -27 324 -11 93 -15 106 -37 121 -36 25 -79
30 -124 15z m109 -85 c3 -5 2 -10 -4 -10 -5 0 -13 5 -16 10 -3 6 -2 10 4 10 5
0 13 -4 16 -10z m-65 -27 c-45 -13 -85 -9 -74 8 3 5 21 8 39 7 19 -1 37 1 41
4 3 4 13 4 22 0 12 -4 4 -10 -28 -19z m50 -63 c13 -8 13 -9 0 -14 -28 -8 -110
-16 -110 -9 0 26 79 43 110 23z m3 -95 c-2 -10 -93 -26 -102 -18 -3 2 4 10 15
18 21 16 90 16 87 0z m17 -85 c12 -7 11 -10 -5 -15 -40 -14 -44 -14 -50 -5 -4
6 -13 10 -21 10 -8 0 -12 -4 -9 -10 3 -5 -1 -10 -9 -10 -9 0 -16 4 -16 10 0
25 79 40 110 20z m18 -95 c12 -11 -11 -19 -68 -22 -33 -2 -60 -1 -60 1 0 3 12
12 28 21 25 14 86 14 100 0z m-14 -90 c34 -7 24 -20 -21 -28 -21 -4 -33 -2
-33 4 0 7 -11 9 -27 6 l-28 -5 24 19 c13 11 31 18 40 15 9 -2 29 -7 45 -11z
m41 -96 c5 -6 1 -9 -10 -9 -11 0 -30 -3 -42 -6 -19 -5 -23 -2 -23 16 0 19 4
21 33 15 17 -4 36 -11 42 -16z m-105 -14 c0 -8 -7 -15 -15 -15 -26 0 -18 20
13 29 1 1 2 -6 2 -14z m50 -75 c-9 -17 -30 -28 -30 -16 0 16 15 36 26 36 12 0
12 -4 4 -20z m58 1 c10 -6 6 -10 -15 -14 -32 -6 -38 -3 -28 12 7 13 25 14 43
2z m7 -91 c7 -12 -39 -24 -61 -16 -8 3 -12 10 -9 16 8 13 62 13 70 0z m-95
-15 c10 -12 7 -14 -19 -12 -34 2 -41 13 -13 20 9 3 18 5 18 6 1 0 7 -6 14 -14z
m78 -70 c12 -4 20 -10 17 -15 -8 -13 -68 -20 -100 -12 l-30 9 30 16 c17 9 37
14 45 12 8 -2 25 -6 38 -10z m22 -95 c23 -14 8 -20 -65 -25 -38 -3 -65 -2 -62
2 29 28 98 41 127 23z m7 -91 l28 -12 -48 -14 c-27 -8 -61 -12 -75 -8 l-27 7
24 19 c27 22 57 24 98 8z m8 -103 l30 -13 -50 -12 c-39 -9 -58 -9 -80 0 l-30
11 30 14 c38 16 62 17 100 0z m3 -92 c33 -9 27 -19 -18 -33 -32 -9 -48 -9 -75
0 -30 11 -32 14 -17 25 18 14 72 18 110 8z m15 -100 c20 -5 25 -9 16 -15 -22
-13 -102 -20 -134 -11 l-30 9 45 15 c25 9 52 15 60 13 8 -2 28 -7 43 -11z
m-73 -96 c0 -10 2 -10 9 0 6 9 19 11 45 7 48 -9 46 -20 -9 -35 -34 -9 -48 -10
-59 -1 -7 6 -21 9 -30 5 -24 -9 -19 10 7 22 31 16 37 16 37 2z m80 -89 c27 -6
50 -14 50 -19 0 -12 -111 -21 -150 -11 -38 9 -39 8 30 34 8 3 16 6 17 6 1 1
25 -4 53 -10z m-4 -97 c-3 -3 -27 -7 -53 -9 -47 -5 -53 10 -8 19 24 5 68 -2
61 -10z m24 -142 c0 -5 -15 -9 -32 -9 l-33 1 30 8 c17 4 31 8 33 9 1 0 2 -3 2
-9z m110 -10 c0 -5 -4 -10 -9 -10 -6 0 -13 5 -16 10 -3 6 1 10 9 10 9 0 16 -4
16 -10z m-239 -15 c-18 -8 -38 -15 -45 -14 -15 1 46 28 64 28 8 0 0 -6 -19
-14z m159 -55 c0 -6 -4 -10 -10 -10 -5 0 -10 -7 -10 -16 0 -8 -5 -12 -10 -9
-8 5 -7 11 1 21 16 19 4 30 -16 14 -17 -14 -21 0 -3 18 12 12 48 -1 48 -18z
m-28 -92 c-7 -7 -12 -8 -12 -2 0 14 12 26 19 19 2 -3 -1 -11 -7 -17z m-85
-190 c-3 -8 -6 -5 -6 6 -1 11 2 17 5 13 3 -3 4 -12 1 -19z"/>
<path d="M42897 21886 c-9 -13 -96 -126 -194 -251 -306 -393 -465 -596 -559
-715 -49 -63 -123 -158 -164 -210 -79 -101 -161 -206 -330 -420 -95 -121 -165
-211 -465 -595 -51 -66 -148 -190 -215 -275 -136 -173 -393 -501 -485 -619
-33 -42 -100 -129 -149 -192 -49 -62 -104 -132 -123 -153 -18 -22 -33 -42 -33
-45 0 -3 616 -6 1370 -6 l1370 0 0 1730 c0 952 3 1740 6 1753 8 29 -10 28 -29
-2z"/>
<path d="M43672 19060 c0 -14 2 -19 5 -12 2 6 2 18 0 25 -3 6 -5 1 -5 -13z"/>
<path d="M43673 18875 c0 -8 4 -12 9 -9 5 3 6 10 3 15 -9 13 -12 11 -12 -6z"/>
<path d="M43677 18773 c-4 -3 -7 -11 -7 -17 0 -6 5 -5 12 2 6 6 9 14 7 17 -3
3 -9 2 -12 -2z"/>
<path d="M43664 18685 c1 -17 4 -21 14 -13 16 14 15 25 -2 31 -10 4 -13 -2
-12 -18z"/>
<path d="M43667 18590 c3 -11 9 -17 15 -14 5 3 4 12 -3 20 -16 19 -18 18 -12
-6z"/>
<path d="M43645 18499 c-8 -23 -8 -23 -16 -4 -7 19 -8 19 -8 -2 -1 -13 3 -23
8 -23 5 0 12 -22 16 -50 7 -50 20 -64 32 -35 3 9 -2 24 -11 34 -20 22 -20 30
1 53 15 17 15 20 1 34 -15 15 -17 14 -23 -7z"/>
<path d="M43610 18440 c0 -5 5 -10 10 -10 6 0 10 5 10 10 0 6 -4 10 -10 10 -5
0 -10 -4 -10 -10z"/>
<path d="M43614 18409 c-3 -6 -2 -15 3 -20 5 -5 9 -1 10 11 2 22 -2 25 -13 9z"/>
<path d="M43610 18361 c0 -5 5 -13 10 -16 6 -3 10 -2 10 4 0 5 -4 13 -10 16
-5 3 -10 2 -10 -4z"/>
<path d="M43627 18321 c-9 -16 -17 -48 -17 -70 0 -37 2 -41 25 -41 22 0 24 2
13 19 -10 16 -9 23 6 40 17 19 17 23 4 50 l-14 30 -17 -28z"/>
<path d="M44457 18302 c-16 -17 -47 -94 -47 -114 0 -6 9 -8 20 -5 16 4 20 0
20 -19 0 -29 -3 -29 -58 -3 -32 16 -46 19 -55 10 -14 -14 -30 -15 -22 -1 4 6
-5 10 -20 10 -25 0 -26 -1 -24 -60 1 -33 0 -62 -2 -65 -3 -2 -61 1 -129 6
-139 12 -1389 17 -1870 8 -168 -3 -258 -3 -201 0 75 4 106 10 109 19 3 11 0
12 -17 3 -18 -10 -25 -8 -48 14 -32 29 -48 32 -57 10 -3 -9 0 -15 9 -15 8 0
15 -4 15 -8 0 -13 -41 -12 -56 1 -43 38 -45 39 -60 26 -12 -10 -12 -14 -2 -20
9 -6 8 -10 -5 -15 -9 -3 -17 -12 -17 -20 0 -9 -11 -14 -32 -13 l-33 1 30 8
c24 6 26 8 8 9 -13 0 -23 7 -23 16 0 18 12 19 28 3 7 -7 12 -8 12 -2 0 6 -11
17 -25 24 -22 12 -27 11 -45 -5 -18 -17 -21 -17 -46 -1 -24 17 -27 17 -45 0
-16 -14 -23 -15 -49 -4 -26 11 -33 10 -49 -4 -22 -20 -30 -20 -53 1 -17 15
-20 15 -41 -5 -28 -26 -35 -27 -57 -7 -15 13 -22 14 -44 3 -22 -9 -32 -9 -48
1 -16 10 -23 10 -37 -3 -13 -12 -34 -14 -95 -11 -51 3 -84 1 -93 -7 -10 -8
-20 -8 -37 0 -18 8 -27 7 -40 -6 -13 -13 -21 -14 -45 -5 -24 9 -34 8 -51 -4
-18 -13 -26 -13 -45 -3 -16 9 -28 9 -42 2 -11 -6 -37 -11 -59 -11 -93 -1 -109
-3 -119 -10 -5 -5 -28 -9 -50 -8 -62 1 -289 -25 -301 -34 -6 -5 -25 -6 -43 -3
-19 4 -37 2 -46 -6 -12 -10 -18 -10 -30 0 -11 9 -20 8 -44 -6 -24 -14 -32 -15
-45 -5 -12 10 -21 9 -45 -5 -25 -15 -32 -15 -46 -4 -13 11 -19 10 -35 -5 -12
-11 -28 -15 -42 -12 -20 5 -61 1 -188 -19 -19 -3 -53 -7 -75 -9 -22 -2 -53 -7
-69 -11 -20 -5 -27 -3 -22 4 3 6 32 16 64 22 31 6 71 15 87 20 l30 9 -30 -4
c-16 -2 -62 -9 -102 -15 l-72 -12 6 -43 c5 -43 5 -44 -32 -59 -51 -22 -56 -20
-45 10 6 14 8 30 5 34 -3 5 3 13 12 19 27 16 6 13 -26 -3 -31 -16 -101 -90
-101 -107 0 -5 4 -8 9 -4 5 3 38 8 73 11 35 2 92 9 127 15 387 61 1325 157
1741 179 113 6 239 15 280 20 41 5 255 12 475 15 221 4 407 11 417 16 26 14
932 13 1302 -1 169 -7 318 -10 331 -8 19 4 25 0 27 -16 3 -18 11 -21 64 -24
l62 -3 6 -42 c11 -69 26 -106 47 -112 27 -9 38 1 61 53 l20 45 102 -6 c548
-32 879 -58 1191 -92 330 -36 392 -39 418 -22 55 36 71 146 28 198 -17 22 -34
24 -347 50 -489 41 -765 69 -1184 123 -182 24 -183 24 -193 77 -5 24 -14 50
-19 57 -15 17 -42 15 -61 -6z m10 -104 c-3 -8 -6 -5 -6 6 -1 11 2 17 5 13 3
-3 4 -12 1 -19z m13 -80 c0 -29 -4 -48 -9 -42 -8 8 -3 94 5 94 2 0 4 -23 4
-52z m-76 6 c22 -21 20 -31 -6 -45 l-23 -12 20 23 20 23 -30 -7 c-24 -5 -26
-4 -12 4 9 6 15 15 12 21 -9 14 2 11 19 -7z m312 -106 c-3 -19 -13 -43 -22
-54 -8 -10 -13 -14 -10 -8 3 6 1 26 -4 43 -6 21 -5 52 2 89 l12 57 14 -46 c9
-28 12 -61 8 -81z m-2836 72 c-6 -11 -20 -20 -33 -19 l-22 0 21 9 c12 5 25 13
29 19 11 19 16 12 5 -9z m2440 16 c0 -3 -4 -8 -10 -11 -5 -3 -10 -1 -10 4 0 6
5 11 10 11 6 0 10 -2 10 -4z m579 -119 c-6 -26 -16 -50 -22 -54 -5 -3 -7 -1
-3 5 3 6 1 21 -5 35 -8 18 -8 39 1 83 l13 59 14 -40 c11 -32 11 -50 2 -88z
m-278 25 c-8 -23 -9 -17 -9 33 0 55 1 57 9 27 7 -22 7 -43 0 -60z m192 16 c0
-45 -6 -53 -29 -44 -14 5 -16 15 -10 52 3 25 9 50 12 56 11 17 27 -21 27 -64z
m193 -4 c4 -31 1 -45 -14 -64 l-20 -25 -7 36 c-8 44 12 131 26 108 4 -9 11
-34 15 -55z m89 16 c4 -23 2 -55 -6 -77 -12 -37 -12 -37 -21 -13 -11 28 -1
130 12 130 4 0 11 -18 15 -40z m99 8 c10 -38 6 -82 -9 -102 -13 -17 -15 -17
-21 -3 -8 21 -7 52 2 95 7 37 19 42 28 10z m-3404 3 c-8 -5 -85 -11 -170 -15
-182 -7 -188 1 -9 13 177 12 197 12 179 2z m3492 -96 c-15 -29 -21 -34 -22
-20 -3 51 -2 77 5 103 l8 27 14 -35 c14 -31 13 -38 -5 -75z m102 51 c7 -35 -9
-86 -27 -86 -5 0 -7 6 -4 14 3 7 2 17 -2 22 -10 12 8 96 18 89 5 -2 12 -20 15
-39z m86 -1 c0 -35 -13 -47 -23 -21 -7 18 3 56 14 56 5 0 9 -16 9 -35z m93 15
c3 -10 -1 -25 -9 -31 -19 -16 -23 -10 -17 24 6 32 18 35 26 7z m-4583 -4 c0
-10 10 -13 38 -10 117 11 413 26 419 20 3 -3 -9 -6 -28 -6 -19 -1 -81 -5 -139
-10 -253 -23 -493 -41 -497 -37 -4 5 90 19 150 23 45 3 47 3 41 19 -4 8 -1 15
5 15 6 0 11 -6 11 -14z m4674 -8 c10 -38 7 -48 -15 -48 -15 0 -19 4 -15 16 3
9 6 24 6 35 0 26 16 24 24 -3z m91 -48 c5 -28 2 -41 -14 -60 l-21 -25 6 29 c4
15 2 31 -3 35 -6 4 -6 19 -1 40 11 39 24 32 33 -19z m91 15 c7 -26 0 -60 -15
-85 -15 -22 -23 -6 -12 24 6 14 7 26 2 26 -4 0 -6 14 -3 30 5 36 19 39 28 5z
m99 -25 c5 -28 2 -42 -13 -60 l-20 -25 3 50 c1 28 3 59 3 70 3 28 19 6 27 -35z
m-1481 6 c-3 -14 -10 -26 -15 -26 -12 0 -11 4 3 35 14 31 21 26 12 -9z m-3874
14 c0 -17 -51 -31 -99 -28 l-46 4 63 8 c34 5 62 13 62 17 0 5 5 9 10 9 6 0 10
-5 10 -10z m165 0 c-3 -5 -12 -10 -18 -10 -7 0 -6 4 3 10 19 12 23 12 15 0z
m4833 -2 c-3 -7 -15 -15 -28 -16 -21 -3 -22 -2 -11 12 16 19 44 21 39 4z m452
-30 c0 -16 -30 -81 -35 -76 -3 3 -2 31 1 63 6 52 9 56 21 40 7 -11 13 -23 13
-27z m83 0 c5 -34 -17 -93 -32 -84 -4 3 -3 32 2 65 10 65 22 72 30 19z m-5436
26 c-3 -3 -12 -4 -19 -1 -8 3 -5 6 6 6 11 1 17 -2 13 -5z m4783 -45 c0 -4 -4
-11 -10 -14 -5 -3 -10 0 -10 9 0 8 -3 23 -6 33 -5 16 -4 16 10 -1 9 -11 16
-23 16 -27z m-5120 5 c-87 -11 -125 -11 -89 0 30 9 155 21 169 17 8 -3 -28
-11 -80 -17z m5843 -31 c-7 -61 -23 -81 -23 -27 0 21 3 49 6 61 11 39 22 15
17 -34z m-552 10 c-8 -15 -10 -15 -11 -2 0 17 10 32 18 25 2 -3 -1 -13 -7 -23z"/>
<path d="M42641 18139 c-22 -18 -25 -18 -48 -3 -14 9 -32 13 -41 8 -13 -5 -9
-9 18 -16 56 -15 89 -16 106 -3 13 9 14 13 2 22 -10 9 -19 7 -37 -8z"/>
<path d="M42744 18148 c-4 -7 -3 -8 5 -4 6 4 20 2 29 -6 15 -12 16 -11 3 5
-16 20 -27 22 -37 5z"/>
<path d="M42846 18152 c-2 -4 4 -9 15 -9 11 -1 17 2 14 8 -7 11 -22 12 -29 1z"/>
<path d="M42248 18133 c-8 -10 -15 -26 -15 -37 0 -17 7 -18 69 -14 38 3 75 11
81 17 12 12 31 15 24 4 -3 -5 6 -9 19 -9 15 -1 25 5 29 17 4 11 11 17 16 13 6
-4 6 -11 -2 -20 -7 -9 -8 -14 -1 -14 6 0 14 5 17 10 3 6 16 10 28 11 15 0 17
2 7 6 -8 3 -23 13 -33 21 -16 14 -19 13 -42 -8 l-25 -23 -25 23 -26 24 -25
-27 c-14 -15 -27 -27 -29 -27 -2 0 -15 11 -28 25 -22 25 -24 25 -39 8z m137
-23 c-3 -5 -11 -10 -16 -10 -6 0 -7 5 -4 10 3 6 11 10 16 10 6 0 7 -4 4 -10z"/>
<path d="M42152 18117 c-9 -10 -4 -13 24 -14 32 -1 33 0 17 13 -23 17 -28 17
-41 1z"/>
<path d="M42198 18083 c7 -3 16 -2 19 1 4 3 -2 6 -13 5 -11 0 -14 -3 -6 -6z"/>
<path d="M43475 18021 l60 -6 3 -65 c3 -66 -10 -351 -28 -610 -5 -80 -14 -217
-20 -305 -6 -88 -17 -232 -26 -320 -25 -273 -64 -649 -70 -680 -3 -16 -14
-102 -24 -190 -11 -88 -27 -209 -35 -270 -29 -211 -36 -267 -32 -272 9 -8 114
103 120 127 5 21 4 22 -6 10 -7 -9 -25 -17 -41 -18 -17 -1 -34 -8 -39 -15 -10
-14 -8 -5 14 56 12 35 15 37 49 31 19 -4 39 -7 44 -8 11 -1 22 43 29 126 5 57
5 59 -4 18 -17 -84 -30 -120 -40 -120 -7 0 -8 7 -4 18 4 9 11 55 17 102 5 47
14 95 20 107 6 12 8 29 5 37 -4 9 -2 28 3 41 7 18 6 32 -2 45 -10 15 -9 23 7
39 14 17 16 26 8 44 -8 17 -8 29 1 43 6 10 12 35 13 54 2 33 5 59 18 170 3 25
5 59 6 75 0 17 3 37 7 45 3 8 7 35 8 60 4 100 14 191 23 208 5 9 7 30 4 45 -3
15 0 33 6 41 9 11 9 19 0 34 -10 16 -10 24 3 44 11 17 13 29 5 46 -7 16 -7 29
2 46 10 18 10 29 2 45 -9 16 -9 26 1 44 7 12 14 38 15 57 8 102 8 157 1 171
-4 9 -1 25 8 38 13 18 14 27 4 52 -11 25 -10 32 4 48 15 16 15 19 1 31 -20 17
-19 50 3 66 14 11 15 16 5 33 -17 27 -16 41 3 62 15 17 15 21 -5 52 -24 39
-26 47 -10 47 5 0 7 -6 3 -12 -4 -7 2 -4 14 6 20 17 21 21 7 36 -19 21 -19 35
0 64 14 21 13 24 -7 42 -19 16 -20 16 -9 1 12 -15 12 -22 0 -45 l-13 -27 -4
28 c-2 15 -8 27 -13 27 -10 0 -12 137 -3 227 l7 61 61 9 c53 8 41 9 -89 9 -86
0 -125 -2 -90 -5z m95 -613 c-7 -117 -16 -233 -20 -258 l-8 -45 -1 40 c0 22 6
130 14 240 8 110 15 211 15 224 0 13 3 22 6 18 3 -3 1 -102 -6 -219z m-31
-437 c-1 -60 1 -113 5 -119 3 -6 2 -13 -4 -17 -5 -3 -10 -13 -10 -21 0 -8 5
-12 10 -9 15 9 12 -4 -5 -21 -8 -9 -15 -32 -16 -52 -1 -20 -5 -48 -10 -62 -9
-26 -6 42 11 245 6 61 10 122 10 138 0 15 2 27 5 27 3 0 4 -49 4 -109z m-42
-413 c-3 -8 -6 -5 -6 6 -1 11 2 17 5 13 3 -3 4 -12 1 -19z m-2 -67 c3 -5 1
-12 -5 -16 -5 -3 -10 1 -10 9 0 18 6 21 15 7z m25 -25 c0 -3 -4 -8 -10 -11 -5
-3 -10 -1 -10 4 0 6 5 11 10 11 6 0 10 -2 10 -4z m-33 -48 c-3 -7 -5 -2 -5 12
0 14 2 19 5 13 2 -7 2 -19 0 -25z m16 -25 c-8 -3 -10 -22 -6 -60 5 -45 3 -58
-11 -68 -12 -9 -19 -37 -25 -104 -8 -90 -21 -134 -21 -73 0 52 22 182 30 182
5 0 6 25 3 56 -5 48 -3 59 12 70 10 8 21 11 24 8 3 -4 1 -9 -6 -11z"/>
<path d="M43907 18013 c18 -2 50 -2 70 0 21 2 7 4 -32 4 -38 0 -55 -2 -38 -4z"/>
<path d="M44025 18005 c20 -8 214 -10 202 -3 -7 4 -57 7 -112 7 -55 0 -95 -2
-90 -4z"/>
<path d="M43600 17930 c0 -40 3 -71 6 -67 4 3 6 33 6 67 0 34 -2 64 -6 67 -3
4 -6 -27 -6 -67z"/>
<path d="M43636 17983 c-6 -14 -5 -15 5 -6 7 7 10 15 7 18 -3 3 -9 -2 -12 -12z"/>
<path d="M39965 17970 c-3 -5 -2 -10 4 -10 5 0 13 5 16 10 3 6 2 10 -4 10 -5
0 -13 -4 -16 -10z"/>
<path d="M43630 17905 c0 -15 4 -24 10 -20 6 3 10 12 10 20 0 8 -4 17 -10 20
-6 4 -10 -5 -10 -20z"/>
<path d="M43607 17842 c7 -5 14 -20 15 -35 3 -30 15 -36 25 -12 6 17 -23 55
-41 55 -7 0 -6 -3 1 -8z"/>
<path d="M43601 17830 c-1 -3 -4 -18 -6 -34 -3 -20 -1 -26 6 -19 6 6 9 21 6
34 -2 13 -5 22 -6 19z"/>
<path d="M43481 15714 c0 -11 3 -14 6 -6 3 7 2 16 -1 19 -3 4 -6 -2 -5 -13z"/>
<path d="M19770 21070 c0 -55 4 -100 9 -100 21 0 76 48 79 68 2 15 -11 42 -38
78 -24 30 -44 54 -46 54 -2 0 -4 -45 -4 -100z"/>
<path d="M18480 21073 c0 -57 3 -103 6 -103 17 0 74 43 79 61 7 20 -13 58 -60
114 l-25 30 0 -102z"/>
<path d="M17290 20975 c0 -155 1 -167 18 -160 45 19 98 16 142 -7 74 -38 109
-113 79 -169 -9 -17 -4 -22 46 -45 54 -25 106 -27 120 -4 11 18 -29 77 -106
153 -77 76 -120 104 -141 91 -7 -5 -9 1 -5 15 4 16 -8 39 -45 88 -55 74 -68
100 -77 157 -3 22 -12 41 -18 44 -10 3 -13 -34 -13 -163z"/>
<path d="M17297 20784 c-4 -4 -7 -61 -7 -128 l0 -120 34 33 c44 42 89 126 81
149 -12 40 -88 86 -108 66z"/>
</g>
</svg>
